#!OML:ASF E:\motion texture\Top Level 1\Subject 1\Session 1\male.ASF
:FULLY-SPECIFIED
:DEGREES
175
root 7.54464 17.6734 5.54679 -0.267856 -84.4181 9.59106
lowerback -1.30569 -2.1132 -2.02593
upperback -0.462826 -2.82556 2.82585
thorax 0.49738 -1.42591 3.98835
lowerneck -10.8767 -6.24031 -6.76779
upperneck 22.0336 -8.54219 3.4007
head 9.1464 -4.34837 1.29445
rclavicle -3.57812e-015 -9.54166e-015
rhumerus -56.9996 -38.2153 -39.2991
rradius 14.772
rwrist 29.6526
rhand -12.0773 -27.6144
rfingers 7.12502
rthumb 13.9825 -57.1242
lclavicle -3.57812e-015 -9.54166e-015
lhumerus -38.0956 23.3927 67.936
lradius 27.3191
lwrist -12.0978
lhand -13.182 29.4421
lfingers 7.12502
lthumb 12.9177 59.0222
rfemur -34.6427 -1.71276 14.9699
rtibia 11.4651
rfoot -7.61016 -22.5787
rtoes 0.349803
lfemur 1.99393 -3.87879 -22.571
ltibia 15.476
lfoot -14.2583 -2.10512
ltoes -12.1866
176
root 7.39475 17.6588 5.53499 -0.677581 -84.3003 10.0541
lowerback -1.30607 -2.1543 -2.01863
upperback -0.446535 -2.88146 2.86561
thorax 0.520749 -1.45481 4.02359
lowerneck -10.8351 -6.32047 -6.8186
upperneck 22.1126 -8.6693 3.45087
head 9.17821 -4.40875 1.30421
rclavicle -8.64713e-015 2.38542e-015
rhumerus -57.362 -38.4629 -38.9986
rradius 14.7069
rwrist 29.9718
rhand -11.8155 -27.452
rfingers 7.12502
rthumb 14.2348 -56.9442
lclavicle -8.64713e-015 2.38542e-015
lhumerus -38.0008 23.4698 68.2042
lradius 27.2427
lwrist -11.8654
lhand -13.5833 29.9392
lfingers 7.12502
lthumb 12.5309 59.5434
rfemur -34.8186 -2.14691 15.3519
rtibia 12.19
rfoot -7.57395 -22.3965
rtoes 0.728932
lfemur 2.2659 -4.0161 -22.5514
ltibia 15.8221
lfoot -14.3194 -2.26175
ltoes -13.0341
177
root 7.24292 17.645 5.52292 -1.14423 -84.1789 10.5553
lowerback -1.28901 -2.20306 -2.01583
upperback -0.432028 -2.94769 2.90676
thorax 0.533769 -1.48872 4.0633
lowerneck -10.8047 -6.39666 -6.86543
upperneck 22.2024 -8.78785 3.48393
head 9.21455 -4.46645 1.30805
rclavicle 1.72943e-014 1.59028e-014
rhumerus -57.7184 -38.8166 -38.603
rradius 14.6163
rwrist 30.4267
rhand -11.6148 -27.3678
rfingers 7.12502
rthumb 14.4282 -56.8462
lclavicle 1.72943e-014 1.59028e-014
lhumerus -37.8632 23.5321 68.5502
lradius 27.1441
lwrist -11.8382
lhand -14.0612 30.4865
lfingers 7.12502
lthumb 12.0701 60.1184
rfemur -34.957 -2.55409 15.7296
rtibia 13.072
rfoot -7.39144 -22.0999
rtoes 1.18994
lfemur 2.52404 -4.16086 -22.5378
ltibia 16.2338
lfoot -14.3586 -2.43301
ltoes -13.9211
178
root 7.08927 17.6322 5.51036 -1.5834 -84.0516 11.0133
lowerback -1.26172 -2.25664 -2.01859
upperback -0.419694 -3.02047 2.95488
thorax 0.540148 -1.52586 4.1137
lowerneck -10.7725 -6.46747 -6.90219
upperneck 22.2916 -8.8961 3.49551
head 9.24834 -4.52078 1.30427
rclavicle -6.85807e-015 -1.35174e-014
rhumerus -58.0668 -39.2605 -38.1261
rradius 14.5111
rwrist 30.9835
rhand -11.4652 -27.3617
rfingers 7.12502
rthumb 14.5724 -56.8298
lclavicle -6.85807e-015 -1.35174e-014
lhumerus -37.6744 23.5788 68.9809
lradius 27.0142
lwrist -11.984
lhand -14.5922 31.0774
lfingers 7.12502
lthumb 11.558 60.7387
rfemur -35.0281 -2.81616 16.0324
rtibia 13.9659
rfoot -6.96674 -21.7858
rtoes 1.81117
lfemur 2.76108 -4.31046 -22.5169
ltibia 16.7141
lfoot -14.371 -2.6254
ltoes -14.8282
179
root 6.9345 17.6207 5.49754 -1.78778 -83.9213 11.2213
lowerback -1.2119 -2.31689 -1.99308
upperback -0.415863 -3.1029 3.01541
thorax 0.525352 -1.5675 4.16203
lowerneck -10.7382 -6.53299 -6.9418
upperneck 22.3832 -8.99228 3.48732
head 9.28121 -4.57187 1.29571
rclavicle 2.20651e-014 -2.62396e-014
rhumerus -58.3956 -39.7782 -37.5814
rradius 14.3777
rwrist 31.6287
rhand -11.4301 -27.3938
rfingers 7.12502
rthumb 14.6061 -56.8594
lclavicle 2.20651e-014 -2.62396e-014
lhumerus -37.4577 23.6372 69.4649
lradius 26.8509
lwrist -12.2933
lhand -15.095 31.4814
lfingers 7.12502
lthumb 11.0731 61.1693
rfemur -35.0203 -2.87694 16.2412
rtibia 14.7622
rfoot -6.22032 -21.5259
rtoes 2.62424
lfemur 2.97024 -4.47585 -22.4652
ltibia 17.266
lfoot -14.3474 -2.8333
ltoes -15.761
180
root 6.77879 17.6112 5.48442 -1.53441 -83.8004 10.959
lowerback -1.15022 -2.37831 -1.92216
upperback -0.414833 -3.18807 3.09887
thorax 0.500225 -1.61054 4.20918
lowerneck -10.7006 -6.5908 -6.97401
upperneck 22.4685 -9.07307 3.45465
head 9.30883 -4.61774 1.27974
rclavicle 1.30204e-014 -1.82882e-014
rhumerus -58.662 -40.3386 -37.0398
rradius 14.2385
rwrist 32.3016
rhand -11.4592 -27.5078
rfingers 7.12502
rthumb 14.5781 -56.9755
lclavicle 1.30204e-014 -1.82882e-014
lhumerus -37.1942 23.7201 70.0122
lradius 26.6417
lwrist -12.7339
lhand -15.5929 31.8576
lfingers 7.12502
lthumb 10.5929 61.5706
rfemur -34.9398 -2.71109 16.3694
rtibia 15.3914
rfoot -5.11423 -21.3457
rtoes 3.60097
lfemur 3.15304 -4.67677 -22.3591
ltibia 17.8768
lfoot -14.2699 -3.03066
ltoes -16.7308
181
root 6.62242 17.6044 5.47169 -0.507303 -83.7047 9.90909
lowerback -1.07813 -2.43453 -1.75488
upperback -0.415199 -3.26815 3.2106
thorax 0.463722 -1.65116 4.23212
lowerneck -10.655 -6.64055 -7.00318
upperneck 22.5438 -9.1402 3.41006
head 9.33001 -4.65837 1.26132
rclavicle -3.12092e-014 2.14687e-014
rhumerus -58.8443 -40.9195 -36.5491
rradius 14.1003
rwrist 32.9712
rhand -11.55 -27.7003
rfingers 7.12502
rthumb 14.4906 -57.1743
lclavicle -3.12092e-014 2.14687e-014
lhumerus -36.8776 23.8533 70.6035
lradius 26.3677
lwrist -13.3018
lhand -16.039 32.1416
lfingers 7.12502
lthumb 10.1625 61.8761
rfemur -34.8009 -2.33778 16.4756
rtibia 15.8359
rfoot -3.66321 -21.2166
rtoes 4.73388
lfemur 3.30762 -4.90943 -22.1595
ltibia 18.5462
lfoot -14.1288 -3.20219
ltoes -17.7431
